<svg xmlns="http://www.w3.org/2000/svg" width="541" height="297" fill="none" viewBox="0 0 541 297"><circle cx="90.5" cy="6.5" r="6.5" fill="#35F0D0"/><circle cx="467" cy="98" r="5" fill="#35F0D0"/><circle cx="27" cy="278" r="5" fill="#35F0D0"/><circle cx="46" cy="161" r="5" fill="#35F0D0"/><circle cx="442" cy="293" r="4" fill="#35F0D0"/><circle cx="501" cy="249" r="4" fill="#35F0D0"/><circle cx="36" cy="37" r="4" fill="#35F0D0"/><path fill="#715EE9" d="M471.06 27.8058L472.899 47.6393L454.803 39.3154L471.06 27.8058Z"/><path fill="#715EE9" d="M108.986 273.986L117.381 285.112L103.548 286.819L108.986 273.986Z"/><path fill="#FF9C92" d="M408.207 8.31075L396.248 16.386L395.234 1.99134L408.207 8.31075Z"/><path fill="#FF9C92" d="M430.064 241.517L407.896 235.003L424.622 219.061L430.064 241.517Z"/><path fill="#FF9C92" d="M530.964 178.349L521.901 188.111L517.979 175.382L530.964 178.349Z"/><path fill="#FF9C92" d="M90.2395 98.4715L77.261 92.1633L89.2133 84.0777L90.2395 98.4715Z"/><path fill="#715EE9" d="M113.7 144.861L137.186 168.701L104.796 177.12L113.7 144.861Z"/><path fill="#F9F02B" d="M75.4579 221.682L79.311 237.646L63.5595 233.001L75.4579 221.682Z"/><path fill="#F9F02B" d="M27.9562 88.9361L13.5892 105.399L6.51516 84.7254L27.9562 88.9361Z"/><path fill="#715EE9" d="M452 152L460.66 167H443.34L452 152Z"/><path fill="#F9F02C" d="M512.577 44.25L535.443 62.2032L508.462 73.0286L512.577 44.25Z"/></svg>